<svg version="1.1" id="Layer_1" xmlns="http://www.w3.org/2000/svg" xmlns:xlink="http://www.w3.org/1999/xlink" x="0px" y="0px"
	 width="100%" viewBox="0 0 376 88" enable-background="new 0 0 376 88" xml:space="preserve">
<path fill="#161615" opacity="1.000000" stroke="none" 
	d="
M264.000000,89.000000 
	C177.333359,89.000000 91.166672,88.973938 5.000197,89.095879 
	C1.576060,89.100716 0.876682,88.427635 0.899636,84.999390 
	C1.080412,58.000607 1.039256,30.999924 0.934871,4.000335 
	C0.925204,1.499847 1.500655,0.936136 3.999952,0.937580 
	C127.333206,1.008816 250.666519,1.008807 373.999786,0.937628 
	C376.498444,0.936186 377.074738,1.498952 377.065155,4.000076 
	C376.960938,31.166336 376.939972,58.333469 377.085297,85.499352 
	C377.101257,88.483650 376.484131,89.094887 373.499878,89.084236 
	C337.166931,88.954529 300.833405,89.000000 264.000000,89.000000 
z"/>
<path fill="#F7F754" opacity="1.000000" stroke="none" 
	d="
M210.031265,63.801704 
	C209.993591,54.550259 209.993591,45.784531 209.993591,35.508278 
	C205.898285,41.742355 202.477356,46.675289 199.364944,51.795742 
	C197.634827,54.642101 196.520874,54.338509 194.938248,51.784084 
	C191.924957,46.920433 188.777924,42.139633 184.533005,37.623920 
	C184.533005,45.345936 184.274460,53.080132 184.637527,60.785034 
	C184.831177,64.894447 183.124664,65.538651 179.712143,65.233841 
	C176.828491,64.976280 173.878311,65.988892 174.024506,60.940025 
	C174.395432,48.128635 174.276810,35.297199 174.065170,22.478567 
	C174.005585,18.868805 175.254410,18.190226 178.609924,18.013302 
	C183.434464,17.758921 186.614731,18.897388 188.807541,23.619850 
	C191.013290,28.370203 194.214081,32.658527 197.289307,37.653595 
	C201.101364,31.514133 204.562134,25.934324 208.029251,20.358463 
	C210.730362,16.014486 214.986557,18.352722 218.419769,18.370686 
	C221.716187,18.387932 220.081924,21.781364 220.106476,23.579956 
	C220.267792,35.400757 220.259811,47.225403 220.162643,59.047607 
	C220.106781,65.844292 221.677414,65.124550 213.691910,65.156281 
	C212.467972,65.161148 210.979401,65.782173 210.031265,63.801704 
z"/>
<path fill="#F7F754" opacity="1.000000" stroke="none" 
	d="
M93.661499,18.242285 
	C97.268547,18.543453 100.488472,18.642845 103.256104,20.386280 
	C111.336533,25.476444 111.097420,35.078228 103.899200,40.565536 
	C107.860146,42.666389 110.960281,45.437313 111.694977,50.031879 
	C112.157921,52.926983 111.579132,55.594498 110.179634,58.193172 
	C107.454063,63.254219 102.573135,64.578072 97.609619,64.856293 
	C89.815521,65.293190 81.979294,64.929703 74.163315,65.055099 
	C71.815880,65.092766 71.439766,63.996078 71.446442,62.027020 
	C71.492668,48.377853 71.524178,34.728065 71.423897,21.079485 
	C71.404976,18.504223 72.530319,18.074915 74.731430,18.113733 
	C80.888420,18.222317 87.048363,18.163507 93.661499,18.242285 
z"/>
<path fill="#F9F954" opacity="1.000000" stroke="none" 
	d="
M276.846710,33.007362 
	C276.846466,42.838898 276.604156,52.180676 276.949249,61.500698 
	C277.118988,66.084557 274.335815,65.165497 271.818573,65.167274 
	C269.320892,65.169044 266.509186,66.138443 266.713287,61.536957 
	C267.080139,53.267376 266.816833,44.969837 266.816833,35.460495 
	C261.595978,42.089016 258.573029,48.869843 253.500778,54.551472 
	C249.664383,48.652218 245.980255,42.987087 242.296127,37.321957 
	C241.867950,37.363003 241.439774,37.404049 241.011597,37.445099 
	C241.011597,44.767296 240.741501,52.103203 241.112137,59.406590 
	C241.337219,63.841877 240.221832,65.380966 235.524963,65.185112 
	C231.828613,65.030975 230.827179,64.226082 230.888153,60.474277 
	C231.093918,47.815472 230.995255,35.147282 230.738464,22.488245 
	C230.666260,18.929764 231.834015,18.213358 235.235199,18.002861 
	C240.140457,17.699282 243.292450,19.044790 245.416855,23.658319 
	C247.212402,27.557611 249.827316,31.074604 252.000778,34.806686 
	C253.341537,37.108955 254.523361,37.060257 255.847229,34.827232 
	C258.542725,30.280703 261.537598,25.888344 263.915436,21.182970 
	C266.612152,15.846558 271.230011,18.335281 274.895935,18.387066 
	C278.359802,18.435995 276.562225,22.015263 276.772461,24.016947 
	C277.066772,26.819197 276.846710,29.675474 276.846710,33.007362 
z"/>
<path fill="#F8F854" opacity="1.000000" stroke="none" 
	d="
M155.459427,60.553848 
	C143.891479,68.151031 129.803375,65.725197 122.583435,55.172756 
	C115.490005,44.805218 117.721245,30.220589 127.484154,23.138823 
	C138.261902,15.320929 152.267624,17.204947 160.292130,27.552074 
	C168.071609,37.583267 166.078949,51.944996 155.459427,60.553848 
z"/>
<path fill="#F8F854" opacity="1.000000" stroke="none" 
	d="
M290.713501,65.178070 
	C288.293915,65.184372 286.315796,65.184372 283.892059,65.184372 
	C286.412598,56.364285 290.579285,48.679020 293.742706,40.607937 
	C296.336578,33.989899 299.405151,27.556435 301.946503,20.919827 
	C303.631744,16.518974 307.147827,18.693539 309.926544,18.147686 
	C312.512604,17.639681 313.171814,19.269810 314.011597,21.291832 
	C319.597809,34.742428 325.308197,48.141792 331.044678,61.529339 
	C332.198975,64.223106 331.817535,65.075302 328.599640,65.306396 
	C323.417389,65.678543 320.008911,64.477806 319.030792,58.811268 
	C318.524414,55.877602 316.599243,54.335754 313.303864,54.798969 
	C311.346954,55.074039 309.290497,55.069416 307.329651,54.808464 
	C301.121307,53.982243 296.372650,55.165287 295.245514,62.423363 
	C294.912933,64.564980 293.206970,65.274803 290.713501,65.178070 
z"/>
<path fill="#E7E74F" opacity="1.000000" stroke="none" 
	d="
M46.450909,43.373070 
	C48.475891,41.715588 51.240803,43.168884 53.449059,40.601528 
	C50.136631,39.493984 47.205059,40.077671 44.374310,39.877647 
	C43.339123,39.804501 42.240345,39.536808 42.236771,38.343414 
	C42.233154,37.134201 43.320770,36.882824 44.381687,36.769009 
	C46.903595,36.498463 49.576138,37.400448 52.117432,36.026890 
	C50.249847,33.129459 46.684036,36.045918 44.175018,32.481812 
	C50.596443,32.481812 56.283958,32.428432 61.969280,32.516602 
	C63.533459,32.540855 63.588551,33.924034 63.588985,35.121452 
	C63.592369,44.452938 63.578770,53.784439 63.592758,63.115902 
	C63.595188,64.737892 62.946953,65.641136 61.239170,65.579422 
	C58.249718,65.471382 55.259689,65.376030 52.271240,65.244888 
	C51.250114,65.200081 50.161255,65.031509 50.082195,63.737324 
	C50.006248,62.494076 50.978146,62.106129 52.012825,61.875816 
	C53.224369,61.606140 55.125893,61.915928 54.858238,59.972145 
	C54.616192,58.214306 52.738434,58.764771 51.556458,58.661037 
	C48.578186,58.399654 45.580765,58.357807 42.591278,58.222275 
	C41.416290,58.169010 40.024750,58.214222 40.129501,56.531673 
	C40.227383,54.959480 41.580696,54.966515 42.763519,54.959614 
	C45.262962,54.945026 47.763638,54.994320 50.261509,54.929165 
	C51.316174,54.901653 52.827587,55.396778 52.974918,53.636520 
	C53.146042,51.591885 51.376907,51.943287 50.184975,51.650021 
	C49.868416,51.572132 49.514801,51.656414 49.189514,51.600475 
	C47.411419,51.294697 44.279453,52.524628 44.505234,49.604462 
	C44.707279,46.991264 47.802319,48.557079 49.568699,48.087765 
	C51.567837,47.556614 55.252018,49.527592 55.221184,46.320946 
	C55.197227,43.829285 51.595028,45.499397 49.637394,45.066750 
	C48.438473,44.801773 46.866074,45.573322 46.450909,43.373070 
z"/>
<path fill="#E6E64F" opacity="1.000000" stroke="none" 
	d="
M51.922066,24.729946 
	C50.679005,21.224972 54.607979,23.771620 54.789467,21.616169 
	C54.769867,21.577028 54.716488,21.272629 54.536980,21.143288 
	C53.094124,20.103674 49.654827,22.283901 49.940536,19.318304 
	C50.169273,16.944044 53.290607,18.389179 55.104488,18.144773 
	C56.723488,17.926622 58.410637,18.243324 60.040207,18.068159 
	C62.989746,17.751108 63.618011,19.186544 63.677559,21.827362 
	C63.738605,24.534979 62.674393,25.265829 60.190826,25.086092 
	C57.566364,24.896158 54.922344,24.976362 51.922066,24.729946 
z"/>
<path fill="#1E1E17" opacity="1.000000" stroke="none" 
	d="
M82.005661,48.143822 
	C82.007675,46.732086 82.352348,46.046558 83.403183,46.045601 
	C87.567825,46.041801 91.749786,45.840603 95.890694,46.160625 
	C98.387138,46.353554 100.802582,47.332676 101.011200,50.596329 
	C101.224174,53.928143 98.923248,55.158085 96.401299,55.426903 
	C92.283943,55.865768 88.103828,55.707436 83.950882,55.825130 
	C82.374062,55.869823 81.975647,54.974304 82.000801,53.611576 
	C82.031548,51.945759 82.003021,50.278843 82.005661,48.143822 
z"/>
<path fill="#202018" opacity="1.000000" stroke="none" 
	d="
M85.156670,27.486263 
	C88.557587,27.669334 91.527046,27.770536 94.477173,28.065260 
	C96.942650,28.311565 98.291649,29.783882 98.401581,32.311710 
	C98.516487,34.953854 96.946480,36.456833 94.639442,36.712070 
	C91.041931,37.110065 87.392464,37.049206 83.764175,37.153805 
	C81.659721,37.214470 81.662498,35.485355 82.075806,34.397743 
	C82.950493,32.096077 79.410072,28.040171 85.156670,27.486263 
z"/>
<path fill="#222219" opacity="1.000000" stroke="none" 
	d="
M139.488220,54.598904 
	C132.100220,53.211296 129.494980,47.771282 128.134277,41.864666 
	C127.075836,37.270115 133.576340,29.957596 138.688187,29.014118 
	C145.452744,27.765608 152.032303,31.336079 153.874603,37.255203 
	C156.945328,47.121147 150.658401,54.947186 139.488220,54.598904 
z"/>
<path fill="#2F2F1C" opacity="1.000000" stroke="none" 
	d="
M312.972565,43.372849 
	C311.164825,45.960911 308.606415,46.234547 302.304596,44.788975 
	C303.972595,40.546104 305.620148,36.355320 307.491180,31.595985 
	C310.453552,35.223534 310.763397,39.542458 312.972565,43.372849 
z"/>
<path fill="#DEDE4D" opacity="1.000000" stroke="none" 
	d="
M146.428436,39.397964 
	C143.835953,39.726315 142.000153,39.014324 141.730164,36.611210 
	C141.551605,35.022148 142.018509,33.382908 143.998611,32.737865 
	C145.904572,32.116978 147.315826,32.896477 148.258148,34.306175 
	C149.653580,36.393749 148.604523,38.013905 146.428436,39.397964 
z"/>
<path fill="#E6E64F" opacity="1.000000" stroke="none" 
	d="
M139.465454,39.501606 
	C138.257629,42.020744 136.603455,42.678013 134.526520,41.440826 
	C133.234116,40.670979 132.097595,39.279682 132.643982,37.778183 
	C133.259659,36.086288 134.645111,34.731041 136.777527,35.002331 
	C139.228027,35.314083 140.002945,36.870197 139.465454,39.501606 
z"/>
<path fill="#E8E850" opacity="1.000000" stroke="none" 
	d="
M135.482147,49.401665 
	C134.512985,46.817516 135.139435,45.149075 137.430359,44.294064 
	C139.020416,43.700638 140.475586,44.079090 141.355927,45.512508 
	C142.285477,47.026100 142.460114,48.674305 140.952560,50.038788 
	C139.120667,51.696850 137.368332,51.442543 135.482147,49.401665 
z"/>
<path fill="#ECEC51" opacity="1.000000" stroke="none" 
	d="
M150.045959,42.907005 
	C151.832733,45.166794 151.306442,46.829567 149.361404,48.123325 
	C147.693298,49.232895 146.293640,48.604980 145.004349,47.301922 
	C143.768112,46.052479 143.655151,44.752205 144.636749,43.346275 
	C146.075272,41.285934 147.826782,41.401432 150.045959,42.907005 
z"/>
</svg>